<?xml version="1.0" encoding="UTF-8" standalone="no"?>
<!-- Created with Inkscape (http://www.inkscape.org/) -->

<svg
   width="141.40532mm"
   height="208.24538mm"
   viewBox="0 0 141.40532 208.24538"
   version="1.1"
   id="svg1"
   xml:space="preserve"
   xmlns="http://www.w3.org/2000/svg"
   xmlns:svg="http://www.w3.org/2000/svg"><defs
     id="defs1" /><g
     id="layer1"
     transform="translate(-533.39998,-347.39792)"><path
       id="rect16-2-3"
       style="fill:#000000;fill-opacity:1;stroke-width:8.53251;stroke-linecap:round;stroke-linejoin:round;stroke-miterlimit:1000;paint-order:stroke fill markers"
       d="m 626.45219,347.41051 c -8.31937,0.19164 -17.10719,2.57276 -25.31163,7.30963 -14.15283,8.17117 -23.70063,21.83521 -25.04705,35.84536 l -42.69352,3.2644 18.51929,32.07711 18.5198,32.07659 22.46116,-32.83778 7.45071,18.56992 h -0.49351 c -2.50884,0 -4.52893,2.01957 -4.52893,4.52841 0,2.41146 1.86627,4.37113 4.23902,4.51962 l -18.5353,40.38926 h -5.2896 c -6.2721,0 -11.32179,5.04918 -11.32179,11.32128 0,5.55789 3.96533,10.15556 9.23251,11.13058 v 18.60765 h -5.87613 c -5.93621,0 -10.71511,4.77941 -10.71511,10.71563 0,5.93621 4.7789,10.71511 10.71511,10.71511 h 96.31299 c 5.93621,0 10.71511,-4.7789 10.71511,-10.71511 0,-5.93622 -4.7789,-10.71563 -10.71511,-10.71563 h -5.87561 v -18.60765 c 5.26714,-0.97505 9.23199,-5.57271 9.23199,-11.13058 0,-6.2721 -5.04969,-11.32128 -11.32179,-11.32128 h -5.30045 l -18.56321,-40.38668 c 2.3913,-0.1293 4.27778,-2.09753 4.27778,-4.5222 0,-2.50884 -2.01957,-4.52841 -4.52841,-4.52841 h -0.29249 l 10.9089,-27.69133 c 7.88251,-5.58378 13.7712,-12.80559 17.22892,-20.5264 0.70733,-1.57949 -28.57448,-2.55126 -28.57448,-2.55126 0,0 31.21506,-5.19974 31.49317,-6.6859 1.45004,-7.74901 0.419,-15.54775 -3.50005,-22.33559 -6.39252,-11.07226 -18.95665,-16.83416 -32.82229,-16.51475 z m -3.92637,12.65452 c 4.09816,-0.10643 8.12433,1.97645 10.31823,5.7764 3.19113,5.52719 1.29748,12.59445 -4.22971,15.78559 -5.52721,3.19113 -12.59498,1.29748 -15.78612,-4.22971 -3.19113,-5.52721 -1.29697,-12.59498 4.23023,-15.78612 1.72725,-0.99722 3.60457,-1.49778 5.46737,-1.54616 z" /></g></svg>
